<svg width="24" height="26" viewBox="0 0 24 26" xmlns="http://www.w3.org/2000/svg" xmlns:xlink="http://www.w3.org/1999/xlink"><title>Page 1</title><defs><path id="a" d="M.04.046h12.015V13.07H.04V.046z"/><path id="c" d="M0 7.41V.017h12.285V7.41z"/><path id="e" d="M12.284 2.414H.044V.034h12.24v2.38z"/></defs><g fill="none" fill-rule="evenodd"><g transform="translate(.71 .009)"><mask id="b" fill="#fff"><use xlink:href="#a"/></mask><path d="M2.9 3.668C4.204 2.462 5.505 1.254 6.807.046c.937 1.157 1.882 2.307 2.814 3.468.633.986 1.253 1.98 1.882 2.97.181.3.386.583.552.892-.643.689-1.271 1.392-1.913 2.081-1.147 1.204-2.292 2.41-3.44 3.612-1.514-.018-3.028-.036-4.543-.052-.384-.396-.767-.795-1.15-1.192l.837-.448c-.474-.259-.971-.47-1.45-.717.428-.085.858-.167 1.288-.251L.04 9.428c.32-.111.641-.223.965-.326.067-.47.102-.945.157-1.417a.89.89 0 0 1 .07-.263c.48-1.109.958-2.22 1.436-3.33.068-.146.109-.313.232-.424" fill="#80481E" mask="url(#b)"/></g><path d="M23.493 1.466l.045-.037c-.763 2.156-1.548 4.305-2.327 6.456.234.252.481.493.721.74-.205.196-.419.383-.613.59l.838.44c-.198.19-.395.382-.59.574.038.353.08.706.128 1.058-.262.356-.537.703-.807 1.053-1.546-1.644-3.078-3.3-4.63-4.94l-.01-.03c2.412-1.971 4.84-3.925 7.245-5.904" fill="#80481E"/><path d="M21.69 1.911c.602-.145 1.197-.32 1.803-.445-2.406 1.98-4.833 3.933-7.245 5.904-.19-.653-.304-1.324-.47-1.982-.138-.624-.3-1.242-.421-1.869 2.11-.54 4.222-1.072 6.333-1.608M10.853 9.466c.641-.69 1.27-1.393 1.912-2.081.217.52.388 1.057.586 1.584.465 1.272.933 2.543 1.393 3.817.559 1.473 1.062 2.966 1.578 4.453.125.31.42.496.634.738.57.542 1.095 1.13 1.69 1.643.592.595 1.196 1.179 1.783 1.78.207.219.45.402.648.63-.283-.15-.517-.373-.773-.561-.582-.437-1.152-.89-1.731-1.33-1.18-.923-2.38-1.817-3.554-2.745l-.029-.041c.14-.371.191-.766.28-1.15.077-.403.19-.798.235-1.206-.66-.029-1.32.016-1.979.048-.803-.006-1.603.07-2.406.065-.84.064-1.684.031-2.523.117.398.239.836.4 1.248.613.565.293 1.158.53 1.717.837.174.513.322 1.034.494 1.549.098.282.138.593.304.847.133.085.29.118.438.17 2.47.867 4.947 1.72 7.417 2.588.322.106.65.202.948.367-3.693.377-7.387.74-11.08 1.107.147-.373.36-.714.545-1.068.457-.857.912-1.714 1.378-2.566.106-.186.207-.377.28-.58a1.85 1.85 0 0 0-.167-.212c-1.148-1.135-2.27-2.297-3.418-3.43-.282-.26-.396-.637-.572-.966-.241-.467-.461-.946-.717-1.405 1.149-1.202 2.294-2.408 3.441-3.612M16.257 7.4c1.553 1.64 3.085 3.296 4.631 4.94-.075.679-.131 1.36-.212 2.038l-.077.44c-.485.003-.968.06-1.45.101-.264.029-.544-.015-.792.098-.37-1.388-.773-2.767-1.15-4.154-.314-1.155-.658-2.302-.95-3.462m4.332 7.517l.08.013c.12.458.206.924.31 1.384.047.233.129.467.101.709-.066.761-.11 1.525-.178 2.286-.157-.491-.22-1.007-.341-1.507-.117-.476-.147-.975-.334-1.431l.015-.044c.16-.458.249-.936.347-1.41m-16.523 5.5c.402.01.802-.059 1.204-.05.835.007 1.67.006 2.505.001.476.623.956 1.242 1.436 1.86.294.355.55.74.866 1.076l-.042.012c-2.65.827-5.307 1.638-7.96 2.458C1.38 23.989.7 22.199 0 20.415c1.355.005 2.71-.007 4.066.003" fill="#E57F25"/><path d="M10.331 3.523c1.676-.006 3.35.001 5.026-.004.121.627.283 1.245.42 1.869.167.658.282 1.33.47 1.982l.01.03c.292 1.161.636 2.308.95 3.463.377 1.387.78 2.766 1.15 4.154.148.485.274.976.41 1.464.074.27.111.572.32.777.515.536.97 1.129 1.503 1.646-.374-.723-.876-1.371-1.272-2.08.303-.151.605-.303.91-.452.186.456.216.955.333 1.43.12.501.184 1.017.34 1.508.034.08.098.139.153.203.635.686 1.262 1.38 1.895 2.07-.407.077-.814.147-1.22.22-.227.02-.33.25-.47.397l-.096-.002c-.299-.165-.626-.26-.948-.367-2.47-.869-4.946-1.721-7.417-2.589-.147-.051-.305-.084-.438-.169-.166-.254-.206-.565-.304-.847-.172-.515-.32-1.036-.494-1.55l.014-.005c1.148.24 2.298.471 3.443.723 1.174.928 2.375 1.822 3.554 2.744.579.441 1.149.894 1.73 1.33.257.19.49.413.774.562-.198-.228-.44-.411-.648-.63-.587-.601-1.19-1.185-1.782-1.78-.596-.514-1.122-1.101-1.69-1.643-.214-.242-.51-.429-.635-.738-.516-1.487-1.02-2.98-1.578-4.453-.46-1.274-.928-2.545-1.393-3.817-.198-.527-.369-1.065-.586-1.584-.165-.31-.37-.593-.552-.893-.628-.99-1.248-1.984-1.882-2.97" fill="#F68C24"/><g transform="translate(0 13.009)"><mask id="d" fill="#fff"><use xlink:href="#c"/></mask><path d="M2.87.017C4.384.033 5.898.051 7.412.07c.256.46.476.938.717 1.406.176.329.29.705.572.965 1.149 1.133 2.27 2.296 3.418 3.43.06.066.116.138.166.213-1.506.413-3.002.87-4.51 1.278-.835.004-1.67.005-2.505 0-.402-.01-.802.059-1.204.048C2.71 7.4 1.356 7.411 0 7.406.95 4.941 1.914 2.48 2.87.017" fill="#F68C24" mask="url(#d)"/></g><path d="M20.599 14.817l.077-.439c-.015.184-.037.37-.006.553l-.081-.013c-.098.474-.186.952-.347 1.41-.254-.367-.495-.743-.745-1.114-.06.537-.136 1.072-.18 1.61.397.709.899 1.357 1.273 2.08-.534-.517-.988-1.11-1.502-1.646-.21-.205-.247-.507-.322-.777-.135-.488-.261-.979-.409-1.464.248-.113.528-.07.792-.098.482-.04.965-.098 1.45-.102m-7.073.228c.66-.032 1.319-.077 1.98-.048-.046.408-.16.803-.236 1.205-.089.385-.14.78-.28 1.15-.381-.637-.761-1.275-1.14-1.913-.758.411-1.518.819-2.274 1.232l-.014.006c-.559-.307-1.152-.544-1.717-.837-.412-.214-.85-.374-1.248-.613.839-.086 1.683-.053 2.523-.117.803.005 1.603-.071 2.406-.065M7.775 20.37c1.508-.408 3.004-.866 4.51-1.279a3.695 3.695 0 0 1-.279.58c-.466.852-.921 1.71-1.378 2.566-.186.354-.398.695-.545 1.068h-.006c-.316-.336-.572-.721-.866-1.076-.48-.618-.96-1.237-1.436-1.86" fill="#D86F21"/><path d="M19.497 15.214c.25.37.49.747.745 1.114-.004.011-.01.033-.015.044-.304.149-.606.3-.91.451.044-.537.12-1.072.18-1.609m-7.921 1.456c.756-.412 1.516-.82 2.273-1.231l1.141 1.914.029.04c-1.145-.25-2.295-.481-3.443-.722" fill="#2B3E50"/><path d="M21.728 21.803c.407-.073.815-.143 1.22-.22.34.202.676.407 1.014.613-.276.535-.554 1.07-.826 1.607l-.028.003a58.4 58.4 0 0 0-1.849.271V22.2c.14-.148.243-.376.47-.397" fill="#221F1F"/><path d="M10.083 23.305c3.693-.367 7.387-.73 11.08-1.107l.096.002v1.877c-.6.326-1.198.66-1.797.99-.176.093-.34.22-.532.276-.244.001-.475-.091-.711-.139l-6.57-1.515c-.254-.069-.514-.13-.78-.11-.288-.049-.554-.183-.834-.262l.042-.012h.006z" fill="#DAC7B9"/><g transform="translate(10.825 23.54)"><mask id="f" fill="#fff"><use xlink:href="#e"/></mask><path d="M.044.038C.31.018.57.08.825.148l6.57 1.516c.235.048.466.14.71.139.193-.056.356-.183.533-.276.598-.331 1.196-.664 1.797-.99a58.4 58.4 0 0 1 1.849-.271c-.139.357-.443.604-.676.895-.303.329-.575.69-.895 1-1.138.098-2.28.16-3.418.247-.233.03-.447-.074-.66-.145C4.683 1.607 2.731.954.78.299.535.214.283.143.044.038" fill="#C6B5A9" mask="url(#f)"/></g></g></svg>