<?xml version="1.0" encoding="UTF-8" standalone="no"?>
<svg
   xmlns:dc="http://purl.org/dc/elements/1.1/"
   xmlns:cc="http://creativecommons.org/ns#"
   xmlns:rdf="http://www.w3.org/1999/02/22-rdf-syntax-ns#"
   xmlns:svg="http://www.w3.org/2000/svg"
   xmlns="http://www.w3.org/2000/svg"
   xmlns:sodipodi="http://sodipodi.sourceforge.net/DTD/sodipodi-0.dtd"
   xmlns:inkscape="http://www.inkscape.org/namespaces/inkscape"
   width="188"
   height="59"
   viewBox="0 0 188 59"
   version="1.1"
   id="svg53"
   sodipodi:docname="logo.svg"
   inkscape:version="0.92.2 5c3e80d, 2017-08-06">
  <metadata
     id="metadata59">
    <rdf:RDF>
      <cc:Work
         rdf:about="">
        <dc:format>image/svg+xml</dc:format>
        <dc:type
           rdf:resource="http://purl.org/dc/dcmitype/StillImage" />
      </cc:Work>
    </rdf:RDF>
  </metadata>
  <defs
     id="defs57" />
  <sodipodi:namedview
     pagecolor="#ffffff"
     bordercolor="#666666"
     borderopacity="1"
     objecttolerance="10"
     gridtolerance="10"
     guidetolerance="10"
     inkscape:pageopacity="0"
     inkscape:pageshadow="2"
     inkscape:window-width="1307"
     inkscape:window-height="772"
     id="namedview55"
     showgrid="false"
     inkscape:zoom="5.0638298"
     inkscape:cx="94"
     inkscape:cy="29.5"
     inkscape:window-x="0"
     inkscape:window-y="23"
     inkscape:window-maximized="0"
     inkscape:current-layer="svg53" />
  <title
     id="title45">LOGO</title>
  <g
     fill="none"
     id="g51"
     style="fill:#4d4d4d">
    <path
       fill="#BF00A1"
       d="M18.378 21.922h21.773v4.531H18.378zm0 6.799h21.773v4.531H18.378zm0 6.803h21.773v4.531H18.378zm7.508-18.23h6.757v2.268h-6.757z"
       id="path47"
       style="fill:#4d4d4d" />
    <path
       d="M29.267.157C13.199.157.174 13.263.174 29.43S13.2 58.705 29.267 58.705c16.068 0 29.093-13.106 29.093-29.274S45.335.157 29.267.157zm3.426 55.312V48.4H30.44v7.264c-.39 0-.779.032-1.173.032s-.72 0-1.081-.028v-7.269h-2.254v7.076C12.88 53.832 3.085 42.667 3.085 29.43c0-13.236 9.795-24.4 22.847-26.043v7.214h2.254V3.227c.357 0 .72-.028 1.081-.028.362 0 .783 0 1.173.028v7.375h2.253V3.41c12.973 1.724 22.67 12.853 22.67 26.02s-9.697 24.296-22.67 26.02v.018zm54.109-26.458a5.864 5.864 0 0 0 3.18-5.485c0-4.36-3.106-7.121-7.944-7.121h-10.33v25.872h10.747c4.838 0 7.875-2.871 7.875-7.412 0-1.816-.458-3.272-1.59-4.47a6.959 6.959 0 0 0-1.938-1.384zm-10.077-8.103h4.91c2.057 0 3.321 1.125 3.321 2.978 0 1.853-1.264 2.977-3.32 2.977h-4.907l-.004-5.955zM81.96 37.77h-5.23v-6.36h5.235c2.057 0 3.358 1.198 3.358 3.161 0 1.964-1.301 3.2-3.358 3.2h-.005zm18.09-14.645a10.209 10.209 0 0 0-4.155.692c-.916.438-1.443.834-2.528 1.926l2.996 2.946c1.117-1.236 1.878-1.563 3.54-1.563 2.53 0 3.574.871 3.574 2.978v.922h-4.444c-3.971 0-6.413 2.106-6.413 5.531 0 3.687 2.345 5.886 6.354 5.886a7.092 7.092 0 0 0 2.67-.438 5.387 5.387 0 0 0 1.952-1.383v1.637h4.58V29.813c0-4.434-2.707-6.688-8.126-6.688zm3.431 12.174c0 2.36-.975 3.305-3.394 3.305-1.988 0-2.96-.729-2.96-2.18 0-1.384.976-2.144 2.64-2.144h3.719l-.005 1.019zm17.659-12.174c-.93-.005-1.85.18-2.707.544a6.07 6.07 0 0 0-2.02 1.415v-1.742h-4.58v18.93h4.695v-11.44c0-2.143 1.19-3.452 3.142-3.452 1.951 0 3.106 1.309 3.106 3.452v11.445h4.695v-12.1c-.014-4.364-2.414-7.052-6.33-7.052zm26.574.221h-5.671l-6.248 7.74V16.405h-4.691v25.872h4.69v-5.632l1.989-2.254 4.622 7.886h5.813l-7.22-11.302zm2.771 18.931h16.936V37.77h-11.915v-6.282h10.146V26.98h-10.146v-6.066h11.915v-4.508h-16.936zm30.371-9.666l6.249-9.265h-5.635l-3.216 5.412-3.174-5.412h-5.635l6.249 9.265-6.5 9.666h5.63l3.43-5.67 3.468 5.67h5.635z"
       fill="#FFF"
       id="path49"
       style="fill:#4d4d4d" />
  </g>
</svg>
